<!DOCTYPE svg PUBLIC "-//W3C//DTD SVG 1.1//EN" "http://www.w3.org/Graphics/SVG/1.1/DTD/svg11.dtd">
<!-- Uploaded to: SVG Repo, www.svgrepo.com, Transformed by: SVG Repo Mixer Tools -->
<svg width="256px" height="256px" viewBox="-117.76 -117.76 747.52 747.52" id="Layer_1" version="1.1" xml:space="preserve" xmlns="http://www.w3.org/2000/svg" xmlns:xlink="http://www.w3.org/1999/xlink" fill="#000000" stroke="#000000" stroke-width="8.704" transform="matrix(1, 0, 0, 1, 0, 0)rotate(45)">
<g id="SVGRepo_bgCarrier" stroke-width="0" transform="translate(0,0), scale(1)">
<rect x="-117.76" y="-117.76" width="747.52" height="747.52" rx="373.76" fill="#000000" strokewidth="0"/>
</g>
<g id="SVGRepo_tracerCarrier" stroke-linecap="round" stroke-linejoin="round" stroke="#000000" stroke-width="11.264"> <style type="text/css"> .st0{fill:#ffffff;} .st1{fill:#ffffff;} .st2{fill:#59ff00;} .st3{fill:#ffffff;} </style> <g> <polygon class="st0" points="325.7,158.4 293.9,190.2 299.2,195.5 271.9,222.9 289.4,240.3 375.8,153.9 358.3,136.4 331,163.7 "/> <polygon class="st0" points="257.6,286.1 218.9,324.8 190.7,352.9 159.3,321.5 254.3,226.4 264.6,236.8 201.4,300 212,310.6 275.2,247.4 285.8,257.9 "/> <rect class="st1" height="15" transform="matrix(0.7072 -0.707 0.707 0.7072 17.6894 202.5552)" width="67.3" x="219.7" y="72.4"/> <rect class="st1" height="15" transform="matrix(0.7071 -0.7071 0.7071 0.7071 -22.0105 186.1261)" width="15" x="206.2" y="112.1"/> <rect class="st1" height="15" transform="matrix(0.7071 -0.7071 0.7071 0.7071 -208.643 318.3921)" width="67.3" x="246.4" y="403.6"/> <rect class="st1" height="15" transform="matrix(0.7071 -0.7072 0.7072 0.7071 -248.3671 301.9985)" width="15" x="232.8" y="443.3"/> <rect class="st2" height="15" transform="matrix(0.7071 -0.7071 0.7071 0.7071 -171.2455 229.014)" width="15" x="183.3" y="313.7"/> <rect class="st1" height="15" transform="matrix(0.7072 -0.7071 0.7071 0.7072 -32.5361 270.1146)" width="15" x="302.3" y="166.8"/> <polygon class="st0" points="82.3,473.3 38.7,429.6 67,423.1 89.1,445.2 "/> <rect class="st3" height="24.7" transform="matrix(0.7072 -0.707 0.707 0.7072 -264.4033 190.4817)" width="25.7" x="84.9" y="402.1"/> <rect class="st3" height="24.7" transform="matrix(0.7071 -0.7071 0.7071 0.7071 -235.656 202.4419)" width="25.7" x="113.7" y="373.3"/> <rect class="st3" height="24.7" transform="matrix(0.7071 -0.7071 0.7071 0.7071 -206.8741 214.3381)" width="25.7" x="142.5" y="344.6"/> <rect class="st3" height="48" transform="matrix(0.7071 -0.7071 0.7071 0.7071 -157.608 285.4839)" width="24.7" x="253.5" y="309"/> <rect class="st3" height="72.9" transform="matrix(0.7072 -0.707 0.707 0.7072 -57.0267 329.2163)" width="24.7" x="356.6" y="197"/> <polygon class="st3" points="387,143.9 368.3,125.2 409.6,72.5 439.7,102.6 "/> <polygon class="st3" points="448.7,90.4 421.8,63.5 472.1,40.1 "/> <path class="st1" d="M503,9.2l-92.5,43l-8.3-8.3l-10.6,10.6l7.3,7.3l-41.3,52.7l-7-7L340,118.1l7.7,7.7l-27.3,27.3l10.6,10.6 l27.3-27.3l17.4,17.4l-86.4,86.4l-17.4-17.4l27.3-27.3l-10.6-10.6l-27.3,27.3l-7-7l-28,28l-14.8-14.8l-10.6,10.6l14.8,14.8 L138,321.5l7,7L65.6,408L9,421.2l81.6,81.6l13.5-56.1l79.5-79.5l7,7l38.8-38.8l44.5,44.5l38.7-38.7l-44.5-44.5l38.8-38.8l-7-7 l23.9-23.9l62.1,62.1l38.7-38.7l-62.1-62.1l23.9-23.9l7.7,7.7l10.6-10.6l-7-7l52.7-41.3l7.3,7.3l10.6-10.6l-8.3-8.3L503,9.2z M82.3,473.3l-43.6-43.6l28.3-6.6l22.1,22.1L82.3,473.3z M97.4,432.2L80,414.8l18.2-18.2l17.4,17.4L97.4,432.2z M126.2,403.5 L108.7,386l18.2-18.2l17.4,17.4L126.2,403.5z M154.9,374.7l-17.4-17.4l18.2-18.2l17.4,17.4L154.9,374.7z M291.5,341.2L274,358.7 l-33.9-33.9l17.4-17.4L291.5,341.2z M257.6,286.1l-38.7,38.7l-28.2,28.2l-31.5-31.5l95-95l10.3,10.3L201.4,300l10.6,10.6l63.2-63.2 l10.5,10.5L257.6,286.1z M403.4,250.5L386,267.9l-51.5-51.5l17.4-17.4L403.4,250.5z M387,143.9l-18.7-18.7l41.3-52.7l30.1,30.1 L387,143.9z M448.7,90.4l-26.9-26.9l50.3-23.4L448.7,90.4z"/> </g> </g>
<g id="SVGRepo_iconCarrier"> <style type="text/css"> .st0{fill:#ffffff;} .st1{fill:#ffffff;} .st2{fill:#59ff00;} .st3{fill:#ffffff;} </style> <g> <polygon class="st0" points="325.7,158.4 293.9,190.2 299.2,195.5 271.9,222.9 289.4,240.3 375.8,153.9 358.3,136.4 331,163.7 "/> <polygon class="st0" points="257.6,286.1 218.9,324.8 190.7,352.9 159.3,321.5 254.3,226.4 264.6,236.8 201.4,300 212,310.6 275.2,247.4 285.8,257.9 "/> <rect class="st1" height="15" transform="matrix(0.7072 -0.707 0.707 0.7072 17.6894 202.5552)" width="67.3" x="219.7" y="72.4"/> <rect class="st1" height="15" transform="matrix(0.7071 -0.7071 0.7071 0.7071 -22.0105 186.1261)" width="15" x="206.2" y="112.1"/> <rect class="st1" height="15" transform="matrix(0.7071 -0.7071 0.7071 0.7071 -208.643 318.3921)" width="67.3" x="246.4" y="403.6"/> <rect class="st1" height="15" transform="matrix(0.7071 -0.7072 0.7072 0.7071 -248.3671 301.9985)" width="15" x="232.8" y="443.3"/> <rect class="st2" height="15" transform="matrix(0.7071 -0.7071 0.7071 0.7071 -171.2455 229.014)" width="15" x="183.3" y="313.7"/> <rect class="st1" height="15" transform="matrix(0.7072 -0.7071 0.7071 0.7072 -32.5361 270.1146)" width="15" x="302.3" y="166.8"/> <polygon class="st0" points="82.3,473.3 38.7,429.6 67,423.1 89.1,445.2 "/> <rect class="st3" height="24.7" transform="matrix(0.7072 -0.707 0.707 0.7072 -264.4033 190.4817)" width="25.7" x="84.9" y="402.1"/> <rect class="st3" height="24.7" transform="matrix(0.7071 -0.7071 0.7071 0.7071 -235.656 202.4419)" width="25.7" x="113.7" y="373.3"/> <rect class="st3" height="24.7" transform="matrix(0.7071 -0.7071 0.7071 0.7071 -206.8741 214.3381)" width="25.7" x="142.5" y="344.6"/> <rect class="st3" height="48" transform="matrix(0.7071 -0.7071 0.7071 0.7071 -157.608 285.4839)" width="24.7" x="253.5" y="309"/> <rect class="st3" height="72.9" transform="matrix(0.7072 -0.707 0.707 0.7072 -57.0267 329.2163)" width="24.7" x="356.6" y="197"/> <polygon class="st3" points="387,143.9 368.3,125.2 409.6,72.5 439.7,102.6 "/> <polygon class="st3" points="448.7,90.4 421.8,63.5 472.1,40.1 "/> <path class="st1" d="M503,9.2l-92.5,43l-8.3-8.3l-10.6,10.6l7.3,7.3l-41.3,52.7l-7-7L340,118.1l7.7,7.7l-27.3,27.3l10.6,10.6 l27.3-27.3l17.4,17.4l-86.4,86.4l-17.4-17.4l27.3-27.3l-10.6-10.6l-27.3,27.3l-7-7l-28,28l-14.8-14.8l-10.6,10.6l14.8,14.8 L138,321.5l7,7L65.6,408L9,421.2l81.6,81.6l13.5-56.1l79.5-79.5l7,7l38.8-38.8l44.5,44.5l38.7-38.7l-44.5-44.5l38.8-38.8l-7-7 l23.9-23.9l62.1,62.1l38.7-38.7l-62.1-62.1l23.9-23.9l7.7,7.7l10.6-10.6l-7-7l52.7-41.3l7.3,7.3l10.6-10.6l-8.3-8.3L503,9.2z M82.3,473.3l-43.6-43.6l28.3-6.6l22.1,22.1L82.3,473.3z M97.4,432.2L80,414.8l18.2-18.2l17.4,17.4L97.4,432.2z M126.2,403.5 L108.7,386l18.2-18.2l17.4,17.4L126.2,403.5z M154.9,374.7l-17.4-17.4l18.2-18.2l17.4,17.4L154.9,374.7z M291.5,341.2L274,358.7 l-33.9-33.9l17.4-17.4L291.5,341.2z M257.6,286.1l-38.7,38.7l-28.2,28.2l-31.5-31.5l95-95l10.3,10.3L201.4,300l10.6,10.6l63.2-63.2 l10.5,10.5L257.6,286.1z M403.4,250.5L386,267.9l-51.5-51.5l17.4-17.4L403.4,250.5z M387,143.9l-18.7-18.7l41.3-52.7l30.1,30.1 L387,143.9z M448.7,90.4l-26.9-26.9l50.3-23.4L448.7,90.4z"/> </g> </g>
</svg>